<svg width="302" height="262" viewBox="0 0 302 262" fill="none" xmlns="http://www.w3.org/2000/svg">
<g clip-path="url(#clip0_146_1942)">
<g filter="url(#filter0_d_146_1942)">
<path fill-rule="evenodd" clip-rule="evenodd" d="M3.96875 240.848C3.96875 248.028 9.78905 253.848 16.9688 253.848H73.1391L80.0666 248.206H192.073L198.554 253.848H277.611C287 253.848 294.611 246.237 294.611 236.848V16.5444C294.611 9.36468 288.79 3.54437 281.611 3.54437L20.9688 3.54437C11.5799 3.54437 3.96875 11.1555 3.96875 20.5444L3.96875 240.848Z" fill="#171A1A" fill-opacity="0.85"/>
<path fill-rule="evenodd" clip-rule="evenodd" d="M3.96875 240.848C3.96875 248.028 9.78905 253.848 16.9688 253.848H73.1391L80.0666 248.206H192.073L198.554 253.848H277.611C287 253.848 294.611 246.237 294.611 236.848V16.5444C294.611 9.36468 288.79 3.54437 281.611 3.54437L20.9688 3.54437C11.5799 3.54437 3.96875 11.1555 3.96875 20.5444L3.96875 240.848Z" stroke="#47594F"/>
</g>
<path opacity="0.4" d="M136.29 14.0444L290.283 14.0444" stroke="url(#paint0_linear_146_1942)"/>
<circle cx="1.5" cy="1.5" r="1.5" transform="matrix(1 0 0 -1 246.547 15.5444)" fill="#4E5C4C"/>
<circle cx="1.5" cy="1.5" r="1.5" transform="matrix(1 0 0 -1 189.547 15.5444)" fill="#4E5C4C"/>
<path fill-rule="evenodd" clip-rule="evenodd" d="M7.96875 245.848C7.96875 253.028 13.789 258.848 20.9687 258.848H77.1391L84.0666 253.206H196.073L202.554 258.848H278.611C289.656 258.848 298.611 249.894 298.611 238.848V21.5444C298.611 14.3647 292.79 8.54437 285.611 8.54437L24.9688 8.54437C15.5799 8.54437 7.96875 16.1555 7.96875 25.5444L7.96875 245.848Z" stroke="#85A692"/>
<path fill-rule="evenodd" clip-rule="evenodd" d="M70.5723 1.17355H87.4212L90.7322 4.05423H73.8833L70.5723 1.17355Z" fill="#598060"/>
<path fill-rule="evenodd" clip-rule="evenodd" d="M294.611 52.0515V22.5444C294.611 15.3647 288.79 9.54437 281.611 9.54437L25.9688 9.54437C16.5799 9.54437 8.96875 17.1555 8.96875 26.5444L8.96875 52.0515H294.611Z" fill="url(#paint1_linear_146_1942)"/>
<path fill-rule="evenodd" clip-rule="evenodd" d="M0.267578 88.6968L0.267578 20.5365L20.7498 0.0542297H60.3044L65.1341 3.75552H23.0066L3.96887 22.7933V93.908L0.267578 88.6968Z" fill="url(#paint2_linear_146_1942)"/>
<path fill-rule="evenodd" clip-rule="evenodd" d="M301.253 113.54L301.253 242.957L282.156 261.054L242.344 261.054L238.643 258.481H278.771L298.68 238.572V109.457L301.253 113.54Z" fill="url(#paint3_linear_146_1942)"/>
</g>
<path d="M9.0293 51.3786H298.491" stroke="url(#paint4_linear_146_1942)"/>
<defs>
<filter id="filter0_d_146_1942" x="-8.53125" y="3.04437" width="315.642" height="279.304" filterUnits="userSpaceOnUse" color-interpolation-filters="sRGB">
<feFlood flood-opacity="0" result="BackgroundImageFix"/>
<feColorMatrix in="SourceAlpha" type="matrix" values="0 0 0 0 0 0 0 0 0 0 0 0 0 0 0 0 0 0 127 0" result="hardAlpha"/>
<feOffset dy="16"/>
<feGaussianBlur stdDeviation="6"/>
<feColorMatrix type="matrix" values="0 0 0 0 0 0 0 0 0 0 0 0 0 0 0 0 0 0 0.5 0"/>
<feBlend mode="normal" in2="BackgroundImageFix" result="effect1_dropShadow_146_1942"/>
<feBlend mode="normal" in="SourceGraphic" in2="effect1_dropShadow_146_1942" result="shape"/>
</filter>
<linearGradient id="paint0_linear_146_1942" x1="136.29" y1="14.5444" x2="136.29" y2="13.5444" gradientUnits="userSpaceOnUse">
<stop stop-color="#374536"/>
<stop offset="1" stop-color="#687B66"/>
</linearGradient>
<linearGradient id="paint1_linear_146_1942" x1="8.96875" y1="9.54437" x2="8.96875" y2="52.0515" gradientUnits="userSpaceOnUse">
<stop offset="0.000245848" stop-color="#121A15" stop-opacity="0.85"/>
<stop offset="1" stop-color="#26402D" stop-opacity="0.85"/>
</linearGradient>
<linearGradient id="paint2_linear_146_1942" x1="65.1341" y1="93.6067" x2="65.1341" y2="0.355473" gradientUnits="userSpaceOnUse">
<stop offset="8.19493e-05" stop-color="#386641" stop-opacity="0.8"/>
<stop offset="0.386691" stop-color="#47664D"/>
<stop offset="1" stop-color="#A1E6A9"/>
</linearGradient>
<linearGradient id="paint3_linear_146_1942" x1="238.643" y1="109.944" x2="238.643" y2="260.568" gradientUnits="userSpaceOnUse">
<stop offset="8.19493e-05" stop-color="#386641" stop-opacity="0.8"/>
<stop offset="0.386691" stop-color="#47664D"/>
<stop offset="1" stop-color="#A1E6A9"/>
</linearGradient>
<linearGradient id="paint4_linear_146_1942" x1="298.491" y1="50.8786" x2="9.0293" y2="50.8786" gradientUnits="userSpaceOnUse">
<stop stop-color="#32483B" stop-opacity="0.01"/>
<stop offset="0.257383" stop-color="#476654"/>
<stop offset="1" stop-color="#466653"/>
<stop offset="1" stop-color="#324843" stop-opacity="0.01"/>
</linearGradient>
<clipPath id="clip0_146_1942">
<rect width="300.985" height="261" fill="white" transform="translate(0.267578 0.0542297)"/>
</clipPath>
</defs>
</svg>
